<svg width="81" height="29" viewBox="0 0 81 29" fill="none" xmlns="http://www.w3.org/2000/svg">
<path fill-rule="evenodd" clip-rule="evenodd" d="M12.64 0.305522C10.1863 0.510169 9.11935 0.720188 7.66259 1.2855C5.37862 2.17183 3.56975 3.75711 2.0501 6.20424C1.92095 6.41223 1.45836 7.3582 1.1909 7.9614C0.414779 9.71142 -0.00367569 11.9557 2.43274e-05 14.3483C0.00627913 18.4475 1.13813 21.6687 3.31595 23.7851C4.15462 24.6 4.73966 25.0294 5.72449 25.5527C6.39683 25.91 7.87385 26.4597 8.43511 26.5615C8.55307 26.5828 8.89338 26.6542 9.19123 26.7201C9.88525 26.8734 10.3478 26.9001 12.2876 26.8993C14.3166 26.8983 14.8679 26.8685 15.6793 26.7157C16.0427 26.6473 16.5184 26.5703 16.7365 26.5446C16.9545 26.5189 17.3509 26.4441 17.6174 26.3783C17.8839 26.3125 18.3993 26.1915 18.7627 26.1093C19.1261 26.0271 19.6052 25.9032 19.8274 25.834C20.0496 25.7648 20.3154 25.692 20.4183 25.6722C21.0839 25.544 24.7422 24.1929 25.5681 23.7703C25.7498 23.6773 25.8984 23.6193 25.8984 23.6413C25.8984 23.7566 31.1828 21.0105 32.2413 20.3451C32.314 20.2994 32.6113 20.1151 32.902 19.9355C33.6217 19.4909 36.3111 17.6771 36.9201 17.2255C38.4707 16.0758 38.8129 15.8156 38.8925 15.7255C38.941 15.6706 39.2234 15.4387 39.5201 15.2101L40.0597 14.7945L40.2249 14.981C40.4003 15.1788 41.7084 16.2549 42.5368 16.8829C42.8097 17.0897 43.1903 17.387 43.3825 17.5436C43.5747 17.7 43.8919 17.9364 44.0873 18.0687C44.2827 18.2011 44.6606 18.4694 44.9271 18.665C46.5363 19.8462 50.3172 22.1889 50.6144 22.1889C50.7187 22.1889 50.7414 21.9796 50.7414 21.0214V19.8539L50.0146 19.4184C49.4282 19.0671 48.0014 18.1601 47.3057 17.6963C47.0189 17.5053 45.3843 16.3521 44.9271 16.0184C44.6606 15.8239 44.0385 15.3388 43.5446 14.9404C43.0508 14.5422 42.4484 14.0576 42.2062 13.8638C41.9639 13.67 41.7634 13.4859 41.7607 13.4547C41.7565 13.4077 42.5714 12.7877 44.0021 11.7497C44.9428 11.0671 46.9802 9.72886 48.0258 9.10664C49.5076 8.2248 50.0666 7.92237 52.0629 6.92239C54.1666 5.86859 55.4221 5.31377 57.0623 4.71295C57.244 4.64644 57.6107 4.51113 57.8772 4.41228C58.1437 4.31353 58.659 4.14615 59.0224 4.04052C59.9523 3.77006 60.153 3.71113 60.6522 3.56216C60.8945 3.48983 61.1918 3.41372 61.3129 3.3931C61.434 3.3724 61.7036 3.3095 61.9121 3.25321C62.1205 3.197 62.4368 3.13225 62.6151 3.10943C62.7933 3.08662 63.0798 3.03006 63.2517 2.98381C64.0371 2.77229 66.3575 2.54412 67.7258 2.54386C73.422 2.54254 77.3025 4.96746 79.003 9.59117C79.212 10.1595 79.3927 10.8982 79.6064 12.0578C79.7263 12.7091 79.76 13.364 79.758 15.0091C79.7553 17.1535 79.668 17.9088 79.2694 19.2377C79.2112 19.4315 79.1595 19.6099 79.1545 19.6341C79.0281 20.2413 78.0474 21.9107 77.3431 22.7174C77.0762 23.0231 76.5256 23.7846 75.7257 24.9545C75.4812 25.3121 75.3288 25.4751 75.3549 25.351C75.3794 25.2349 75.4606 24.8427 75.5354 24.4793C75.6101 24.116 75.733 23.5252 75.8082 23.1665C75.9689 22.4008 75.919 22.2992 75.4573 22.4515C75.0833 22.5749 74.8918 22.8305 74.8198 23.3027C74.7558 23.7211 74.1646 24.9689 73.8808 25.2843C73.4455 25.7682 73.1177 25.7855 73.1177 25.3246C73.1177 24.8581 73.6058 23.5441 73.884 23.2618C74.0487 23.0945 74.0316 22.8622 73.8593 22.9282C73.7827 22.9577 73.7046 22.9817 73.6856 22.9817C73.6134 22.9817 72.9278 24.1016 72.7423 24.5226C72.1579 25.849 71.7063 26.4434 71.2237 26.5211C71.0767 26.5449 71.0511 26.5059 71.0695 26.2853C71.0816 26.14 71.1553 25.7832 71.2334 25.4925C71.6348 23.9969 71.9152 22.8813 71.9307 22.7174C71.9377 22.6448 72.0109 22.356 72.0934 22.0757C72.26 21.5099 72.2335 21.396 71.9352 21.396C71.4939 21.396 71.2005 21.8257 71.0512 22.6906C71.0245 22.8454 70.9014 23.3409 70.7777 23.7918C70.6541 24.2426 70.4945 24.8259 70.4232 25.0881C70.2253 25.8156 70.0488 26.1255 69.6144 26.5078C69.2209 26.8543 68.8011 26.9734 68.8011 26.7387C68.8011 26.6732 68.9761 26.1083 69.1901 25.4834C69.6052 24.2706 69.6768 23.9858 69.5719 23.9643C69.5355 23.9569 69.368 23.9508 69.1995 23.9508C68.8153 23.9508 68.7295 24.0757 68.3242 25.2248C68.154 25.7076 67.9402 26.2031 67.8491 26.326C67.4342 26.886 66.5106 27.3532 66.5106 27.0029C66.5106 26.9374 66.7158 26.4715 66.9667 25.9678C67.3033 25.292 67.4246 24.9481 67.4292 24.6555L67.4356 24.2591L67.0036 24.2317C66.766 24.2167 66.548 24.2365 66.5191 24.2758C66.4902 24.3151 66.2937 24.4815 66.0823 24.6455C65.7571 24.8981 65.7071 24.9156 65.7566 24.7601C65.8217 24.5545 65.5485 24.2151 65.3177 24.2151C65.0774 24.2151 64.5315 24.5423 64.051 24.9742L63.5828 25.3952L63.8209 24.9252C64.0863 24.4016 64.045 24.3069 63.551 24.3045C63.2086 24.3028 63.1224 24.4057 62.5549 25.4925C62.065 26.4307 61.8473 26.6727 61.2382 26.9562C60.8556 27.1343 60.6081 27.1279 60.6081 26.94C60.6081 26.8329 61.0336 26.0314 61.5983 25.0746C61.7912 24.748 61.926 24.4209 61.898 24.3478C61.8398 24.1964 61.1817 24.159 61.0933 24.3022C61.0603 24.3555 60.9544 24.3336 60.8203 24.2457C60.5258 24.0527 59.6238 24.1354 59.0995 24.4035C58.4816 24.7194 57.7259 25.3363 57.4301 25.7663C57.0556 26.3106 57.0367 26.8825 57.3834 27.1806C57.7251 27.4746 58.3706 27.4834 59.0116 27.2029C59.4891 26.994 59.4629 26.9911 59.4629 27.2513C59.4629 27.6948 60.0879 27.7728 60.9972 27.4427C61.5134 27.2553 61.562 27.2504 61.4857 27.3929C61.3327 27.6787 61.3919 27.7389 61.8262 27.7389C62.2947 27.7389 62.4345 27.6328 62.8138 26.9901C63.4474 25.9163 64.5725 24.77 64.5725 25.1982C64.5725 25.3075 63.8051 26.7647 63.4489 27.3321C63.2088 27.7144 63.2685 27.8232 63.7193 27.8257C64.0681 27.8275 64.2834 27.6909 64.4499 27.3618C64.7252 26.8177 65.7345 25.3599 65.9574 25.1846C66.4494 24.7976 66.4471 24.9698 65.9461 26.0273C65.4918 26.9863 65.4058 27.3092 65.5388 27.5575C65.724 27.9036 66.7099 27.7347 67.3489 27.2473C67.6447 27.0217 67.6558 27.0199 67.6558 27.1978C67.6558 27.2994 67.7531 27.4461 67.8719 27.524C68.2107 27.746 68.8974 27.5152 69.7481 26.8933C69.9351 26.7565 69.9463 26.7579 69.9463 26.9177C69.9463 27.3472 70.4194 27.4132 71.1206 27.0814C71.3728 26.9622 71.7152 26.7242 71.8814 26.5527L72.1837 26.2408L72.2763 26.5273C72.3467 26.7451 72.4266 26.8205 72.6092 26.8416C72.9363 26.8793 73.5768 26.4265 73.9692 25.8803C74.3232 25.3875 74.3963 25.3467 74.3081 25.6907C74.2739 25.824 74.2281 26.032 74.2063 26.1532C74.1845 26.2743 74.1112 26.5716 74.0435 26.8139C73.4528 28.9278 73.4715 28.7451 73.8533 28.6831C74.1546 28.6342 75.1806 28.0696 75.2901 27.8924C75.3176 27.848 75.2969 27.7685 75.244 27.7156C75.1749 27.6465 75.0948 27.667 74.9568 27.7895L74.7655 27.9591L74.8245 27.5794C74.8888 27.1652 75.5481 25.8418 76.0663 25.0868C76.4353 24.5491 77.2952 23.4366 77.8507 22.778C79.4784 20.8482 80.692 17.9643 80.9344 15.4495C81.0236 14.5236 81.0213 12.012 80.9305 11.1795C80.7541 9.56368 80.2568 7.8511 79.5595 6.45822C78.5617 4.46523 77.1776 3.07217 75.188 2.05836C73.5452 1.22128 71.836 0.811807 69.638 0.728644C67.6606 0.653851 65.7948 0.805377 63.6034 1.21863C62.8601 1.35879 61.0393 1.82693 60.2558 2.07933C60.0377 2.14954 59.7999 2.21967 59.7272 2.23526C59.6545 2.25085 59.4761 2.31023 59.3308 2.36731C59.1854 2.4244 59.007 2.48457 58.9343 2.50113C58.8616 2.51761 58.5841 2.61108 58.3177 2.70869C58.0512 2.80638 57.6598 2.94936 57.4482 3.02645C57.2364 3.10353 56.949 3.22563 56.8095 3.29778C56.6699 3.36993 56.5557 3.40332 56.5557 3.37187C56.5557 3.34051 56.5062 3.35584 56.4456 3.40596C56.3851 3.45609 56.0286 3.61898 55.6535 3.76795C55.2784 3.91692 54.9017 4.07593 54.8166 4.12139C54.7314 4.16694 53.859 4.60222 52.878 5.08886C51.8971 5.5755 50.8862 6.08971 50.6316 6.23155C49.7135 6.74321 48.6016 7.39617 48.1345 7.69772C47.8725 7.86696 47.4302 8.15027 47.1515 8.32734C46.4225 8.79064 45.5736 9.36388 45.0152 9.76965C44.7487 9.96337 44.4316 10.1887 44.3104 10.2704C43.8978 10.5488 42.6825 11.4688 41.8721 12.1164C41.4273 12.4718 41.0399 12.7626 41.0111 12.7626C40.9823 12.7626 40.5797 12.4553 40.1165 12.0799C38.5269 10.7914 38.0103 10.385 37.3182 9.87836C36.2093 9.06691 34.6601 7.98122 34.2495 7.72794C34.0414 7.5995 33.425 7.21293 32.8797 6.86901C32.3344 6.52499 31.8488 6.24353 31.8005 6.24353C31.7522 6.24353 31.7127 6.20653 31.7127 6.16133C31.7127 6.11614 31.6342 6.0543 31.5384 6.0239C31.4425 5.99342 30.9767 5.74869 30.5033 5.48C29.1119 4.69031 26.9146 3.62911 25.3258 2.97932C25.2289 2.93967 24.9514 2.82215 24.7091 2.7182C24.4669 2.61416 24.2092 2.51241 24.1365 2.49197C24.0638 2.47144 23.2962 2.21702 22.4305 1.92639C21.5649 1.63577 20.772 1.38249 20.6686 1.36346C20.5652 1.34444 20.2625 1.26982 19.996 1.19767C17.906 0.631739 14.1667 0.178224 12.64 0.305522ZM15.7262 2.41912C17.6415 2.72243 18.2188 2.84506 19.7317 3.26959C20.9297 3.60577 23.3218 4.41404 23.8282 4.65375C23.9251 4.69956 24.381 4.89522 24.8413 5.08859C26.5481 5.80534 28.9679 7.03877 30.9959 8.22568C32.5619 9.14223 36.8832 12.1152 37.0866 12.416C37.1108 12.4518 37.4324 12.7129 37.8014 12.9962C38.7533 13.7274 39.2166 14.1636 39.152 14.2681C39.0844 14.3774 36.9849 15.9409 36.2564 16.4246C35.9693 16.6151 35.3945 16.9974 34.979 17.2742C31.8414 19.3636 27.7733 21.4702 24.2686 22.8202C23.4644 23.1299 21.846 23.6722 21.846 23.6319C21.846 23.61 21.7679 23.634 21.6725 23.6851C21.493 23.7811 19.04 24.4284 18.497 24.523C18.3282 24.5525 17.9324 24.6313 17.6174 24.6984C16.2015 24.9994 14.6864 25.1173 12.809 25.0726C11.7954 25.0484 10.8274 24.9862 10.6578 24.9342C10.4883 24.8822 10.1645 24.8183 9.93837 24.7923C9.71223 24.7662 9.4238 24.7055 9.29739 24.6575C9.17097 24.6094 8.97936 24.5522 8.87162 24.5304C8.31327 24.4172 6.15942 23.4568 5.98877 23.245C5.96455 23.2149 5.76096 23.0653 5.53623 22.9125C4.89938 22.4792 4.15488 21.7629 3.68763 21.1338C3.45285 20.8177 3.22521 20.5163 3.18169 20.4639C2.97793 20.2188 2.36548 18.9903 2.13115 18.3567C1.7704 17.3812 1.70829 17.1654 1.48444 16.1103C1.30966 15.2861 1.28772 14.9211 1.28367 12.7626C1.27953 10.5725 1.29785 10.2554 1.47475 9.45902C1.67851 8.54186 1.84211 7.97012 2.0294 7.52092C2.09001 7.37556 2.14859 7.21699 2.15952 7.16853C2.2336 6.84011 2.9596 5.82675 3.52896 5.25721C4.67976 4.10588 6.28064 3.18995 7.9193 2.74516C9.58238 2.29367 10.2872 2.20936 12.3853 2.21095C14.0865 2.21218 14.6355 2.24636 15.7262 2.41912ZM52.7894 20.7474C52.4619 20.8204 51.9748 21.3401 51.9748 21.6162C51.9748 22.0681 52.2934 22.4302 52.9824 22.7617C53.6099 23.0635 53.6457 23.0698 54.7313 23.0698C55.3408 23.0698 55.9412 23.0311 56.0655 22.9839C56.1898 22.9366 56.2915 22.9112 56.2915 22.9273C56.2915 22.9435 55.8678 23.3082 55.3501 23.7379C54.8322 24.1677 54.2872 24.6314 54.1387 24.7686C53.5869 25.2782 52.8775 25.6393 52.3308 25.6889C51.8579 25.7318 51.7938 25.7159 51.5812 25.5033C51.301 25.2231 51.3548 25.096 51.7538 25.096C52.3577 25.096 52.1959 24.3691 51.5656 24.2509C51.1327 24.1697 50.8119 24.2969 50.6623 24.6092C50.552 24.8393 50.5567 24.9004 50.7061 25.1768C51.0639 25.8388 52.1362 26.207 53.2258 26.0421C53.8251 25.9514 54.8025 25.5032 55.3361 25.0744L55.6671 24.8084L56.2397 24.9522C56.5546 25.0313 56.8932 25.096 56.9923 25.096C57.2492 25.096 57.2324 24.7873 56.9742 24.7647C56.8652 24.7551 56.612 24.6969 56.4117 24.6354L56.0474 24.5234L57.0762 23.4463L58.1049 22.3692L58.9158 22.465C59.805 22.5701 60.3253 22.516 60.4042 22.3103C60.4849 22.1001 60.3101 21.9957 59.6658 21.8689C59.2031 21.7778 58.9359 21.7727 58.4939 21.8466C57.9674 21.9347 57.8751 21.9248 57.3486 21.7241C57.0337 21.604 56.5579 21.4055 56.2915 21.283C55.4029 20.8746 54.9548 20.7695 53.9569 20.7358C53.4239 20.7178 52.8985 20.723 52.7894 20.7474ZM55.917 21.4896C56.1229 21.578 56.2915 21.6295 56.2915 21.6041C56.2915 21.5786 56.4202 21.6355 56.5778 21.7305C56.7353 21.8255 57.0159 21.9517 57.2013 22.0111L57.5385 22.119L57.3031 22.2411C57.1736 22.3083 56.7245 22.4569 56.3052 22.5712C55.2281 22.865 54.1423 22.8429 53.5009 22.5143C53.2477 22.3845 53.0189 22.1986 52.9865 22.0963C52.9241 21.8998 53.107 21.635 53.4274 21.4579C53.8989 21.1973 55.2777 21.2149 55.917 21.4896ZM69.2825 22.8902C68.9647 23.0176 68.8506 23.2236 68.9624 23.4689C69.1523 23.8856 70.0344 23.6873 70.0344 23.2279C70.0344 22.9641 69.5928 22.7658 69.2825 22.8902ZM60.6777 24.5895C60.7439 24.6695 60.6297 24.9407 60.2606 25.5805C59.7122 26.5313 59.4648 26.7495 58.8649 26.812C58.377 26.8628 58.189 26.6536 58.2735 26.1539C58.4241 25.2623 60.2509 24.0738 60.6777 24.5895Z" fill="#313131"/>
</svg>
